HIERARCHY
ROOT Hips
{
	OFFSET 54.590401 -1.380696 96.400703
	CHANNELS 6 Xposition Yposition Zposition Xrotation Yrotation Zrotation
	JOINT spine
	{
		OFFSET 0.000000 -0.467660 8.132492
		CHANNELS 3 Xrotation Yrotation Zrotation
		JOINT spine1
		{
			OFFSET 0.000000 -0.000002 10.349800
			CHANNELS 3 Xrotation Yrotation Zrotation
			JOINT spine2
			{
				OFFSET 0.000000 -0.000002 9.916992
				CHANNELS 3 Xrotation Yrotation Zrotation
				JOINT Neck
				{
					OFFSET 0.000000 -1.213904 25.460999
					CHANNELS 3 Xrotation Yrotation Zrotation
					JOINT Head
					{
						OFFSET 0.000000 -0.000001 7.692444
						CHANNELS 3 Xrotation Yrotation Zrotation
						End Site
						{
							OFFSET 0.000000 6.140627 18.619995
						}
					}
				}
				JOINT RightShoulder
				{
					OFFSET -4.175751 0.581443 10.709595
					CHANNELS 3 Xrotation Yrotation Zrotation
					JOINT RightArm
					{
						OFFSET 0.000000 -0.000002 14.046600
						CHANNELS 3 Xrotation Yrotation Zrotation
						JOINT RightArmRoll
						{
							OFFSET 0.000000 -0.000001 7.090988
							CHANNELS 3 Xrotation Yrotation Zrotation
							JOINT RightForeArm
							{
								OFFSET 0.000000 -0.000003 20.653503
								CHANNELS 3 Xrotation Yrotation Zrotation
								JOINT RightForeArmRoll
								{
									OFFSET 0.000000 -0.000001 7.957184
									CHANNELS 3 Xrotation Yrotation Zrotation
									JOINT RightHand
									{
										OFFSET 0.000000 -0.000003 15.968307
										CHANNELS 3 Xrotation Yrotation Zrotation
										End Site
										{
											OFFSET 0.000000 0.000000 0.100006
										}
									}
								}
							}
						}
					}
				}
				JOINT LeftShoulder
				{
					OFFSET 4.175751 0.581443 10.709595
					CHANNELS 3 Xrotation Yrotation Zrotation
					JOINT LeftArm
					{
						OFFSET 0.000000 -0.000002 14.046600
						CHANNELS 3 Xrotation Yrotation Zrotation
						JOINT LeftArmRoll
						{
							OFFSET 0.000000 -0.000001 7.090973
							CHANNELS 3 Xrotation Yrotation Zrotation
							JOINT LeftForeArm
							{
								OFFSET 0.000000 -0.000003 20.653503
								CHANNELS 3 Xrotation Yrotation Zrotation
								JOINT LeftForeArmRoll
								{
									OFFSET 0.000000 -0.000001 7.957184
									CHANNELS 3 Xrotation Yrotation Zrotation
									JOINT LeftHand
									{
										OFFSET 0.000000 -0.000003 15.968292
										CHANNELS 3 Xrotation Yrotation Zrotation
										End Site
										{
											OFFSET 0.000000 0.000000 0.100006
										}
									}
								}
							}
						}
					}
				}
			}
		}
	}
	JOINT RightUpLeg
	{
		OFFSET -7.208340 1.108840 -1.321823
		CHANNELS 3 Xrotation Yrotation Zrotation
		JOINT RightUpLegRoll
		{
			OFFSET 0.000000 -0.000003 18.723801
			CHANNELS 3 Xrotation Yrotation Zrotation
			JOINT RightLeg
			{
				OFFSET 0.000000 0.000004 -23.186600
				CHANNELS 3 Xrotation Yrotation Zrotation
				JOINT RightLegRoll
				{
					OFFSET 0.000000 -0.000004 23.262398
					CHANNELS 3 Xrotation Yrotation Zrotation
					JOINT RightFoot
					{
						OFFSET 0.000000 -0.000003 19.362106
						CHANNELS 3 Xrotation Yrotation Zrotation
						JOINT RightToeBase
						{
							OFFSET 0.000000 -0.000003 16.185699
							CHANNELS 3 Xrotation Yrotation Zrotation
							End Site
							{
								OFFSET 0.006859 0.903521 7.838623
							}
						}
					}
				}
			}
		}
	}
	JOINT LeftUpLeg
	{
		OFFSET 7.208340 1.108840 -1.321823
		CHANNELS 3 Xrotation Yrotation Zrotation
		JOINT LeftUpLegRoll
		{
			OFFSET 0.000000 -0.000003 18.723900
			CHANNELS 3 Xrotation Yrotation Zrotation
			JOINT LeftLeg
			{
				OFFSET 0.000000 -0.000004 23.186508
				CHANNELS 3 Xrotation Yrotation Zrotation
				JOINT LeftLegRoll
				{
					OFFSET 0.000000 -0.000004 23.477509
					CHANNELS 3 Xrotation Yrotation Zrotation
					JOINT LeftFoot
					{
						OFFSET 0.000000 -0.000003 19.147003
						CHANNELS 3 Xrotation Yrotation Zrotation
						JOINT LeftToeBase
						{
							OFFSET 0.000000 -0.000003 16.185699
							CHANNELS 3 Xrotation Yrotation Zrotation
							End Site
							{
								OFFSET -0.030746 0.903521 7.838623
							}
						}
					}
				}
			}
		}
	}
}
MOTION
Frames: 5
Frame Time: 0.041667
55.845203 -12.635618 86.685989 -4.134434 2.101391 3.900515 -0.229188 -0.635178 -0.031412 3.544273 -1.270267 -0.059044 5.189520 -1.270891 -0.043819 2.350172 -8.344095 -6.315794 3.758101 11.918058 -6.881381 -26.413475 -21.415986 -33.802975 -140.686966 -182.742913 -72.264084 -0.000002 -0.000000 -0.000005 61.055430 3.399001 4.986102 0.000004 0.000012 -3.001091 -5.000186 -7.999938 0.000038 -20.456312 19.445653 24.805248 -148.216102 186.729531 65.370989 -0.000000 0.000003 0.000007 40.502568 -8.268844 -1.580225 0.000001 -0.000006 2.999999 -5.000208 7.999191 -0.000106 -18.234906 -167.635109 -0.802886 179.999991 -0.000004 -1.278005 128.992221 8.629254 3.254825 0.000002 -0.000001 4.624259 86.907846 5.692173 5.684370 26.942598 -7.309351 1.865630 -17.677923 164.824950 3.996079 -0.000021 -0.000005 -1.517750 -51.792501 -12.339255 -5.462866 -0.000002 -0.000004 -5.559937 86.678946 -5.550357 -6.341533 27.537695 7.269726 -2.511960 
55.851902 -12.618916 86.910202 -4.136351 2.103930 3.926339 -0.244352 -0.637209 -0.029470 3.513961 -1.274320 -0.055327 5.159212 -1.274896 -0.040053 2.499834 -8.308568 -6.326021 3.697604 11.861164 -6.892579 -26.367954 -21.535841 -33.723342 -140.551373 -182.301314 -72.620402 -0.000003 -0.000002 -0.000007 60.842635 3.418523 4.884268 0.000003 0.000009 -3.001081 -5.000186 -7.999938 0.000036 -20.379312 19.677684 24.679591 -148.080058 186.426790 65.984572 0.000000 0.000003 0.000007 40.196869 -8.325888 -1.469661 0.000001 -0.000006 3.000001 -5.000206 7.999191 -0.000107 -17.955780 -167.584470 -0.676195 179.999991 -0.000005 -1.270000 129.683094 8.501974 3.123239 0.000000 0.000002 4.483140 86.414549 5.720509 5.537597 27.014756 -7.304976 1.956287 -17.418029 164.791687 3.910484 -0.000021 -0.000005 -1.508930 -51.078549 -12.286838 -5.318035 -0.000002 -0.000004 -5.404199 86.202356 -5.578879 -6.181805 27.603704 7.264181 -2.591410 
55.884605 -12.497317 87.207489 -4.138126 2.105381 3.950899 -0.259401 -0.638482 -0.027685 3.483886 -1.276857 -0.051930 5.129128 -1.277386 -0.036628 2.652113 -8.281055 -6.336003 3.632789 11.808596 -6.902539 -26.323715 -21.665937 -33.645280 -140.414742 -181.859538 -72.970907 -0.000002 0.000000 -0.000006 60.632341 3.436257 4.782951 0.000002 0.000010 -3.001071 -5.000185 -7.999941 0.000040 -20.300572 19.905663 24.551924 -147.939165 186.111289 66.600881 0.000000 0.000002 0.000007 39.893089 -8.377574 -1.361119 0.000001 -0.000006 3.000001 -5.000206 7.999193 -0.000106 -17.671687 -167.534664 -0.549903 179.999991 -0.000005 -1.263006 130.392997 8.371380 2.989774 0.000001 0.000002 4.338080 85.893071 5.748444 5.389384 27.093726 -7.299909 2.055342 -17.150446 164.755228 3.818811 -0.000023 -0.000005 -1.499849 -50.341260 -12.225538 -5.165451 -0.000000 -0.000005 -5.242399 85.698732 -5.607125 -6.018728 27.676027 7.257897 -2.678291 
55.926502 -12.533519 87.455002 -4.139582 2.105597 3.974039 -0.274239 -0.638837 -0.026085 3.454220 -1.277556 -0.048908 5.099472 -1.278053 -0.033597 2.805253 -8.264082 -6.345791 3.564531 11.762141 -6.911235 -26.281695 -21.808157 -33.569936 -140.276362 -181.420193 -73.313775 -0.000003 0.000001 -0.000004 60.425857 3.451832 4.682519 0.000002 0.000009 -3.001059 -5.000186 -7.999938 0.000038 -20.220352 20.126778 24.422695 -147.791237 185.781979 67.218289 -0.000002 0.000003 0.000006 39.592855 -8.422858 -1.255293 0.000000 -0.000006 3.000001 -5.000205 7.999193 -0.000105 -17.383482 -167.486702 -0.424650 179.999991 -0.000005 -1.256996 131.121751 8.237852 2.852427 0.000000 0.000000 4.189140 85.341411 5.775751 5.240239 27.180121 -7.294042 2.163624 -16.875844 164.713659 3.721263 -0.000022 -0.000004 -1.490509 -49.580712 -12.154251 -5.004798 -0.000002 -0.000007 -5.074349 85.166284 -5.635029 -5.852231 27.755157 7.250807 -2.773257 
55.881004 -12.586913 87.728500 -4.140516 2.104418 3.995588 -0.288775 -0.638119 -0.024697 3.425161 -1.276117 -0.046314 5.070402 -1.276577 -0.031021 2.957489 -8.260195 -6.355404 3.493658 11.723682 -6.918637 -26.243048 -21.964761 -33.498963 -140.135401 -180.985888 -73.649206 -0.000007 -0.000002 -0.000006 60.224558 3.464880 4.583112 0.000005 0.000011 -3.001041 -5.000185 -7.999939 0.000038 -20.138685 20.338430 24.292273 -147.633801 185.437792 67.834119 -0.000001 0.000002 0.000008 39.297507 -8.460885 -1.152724 0.000000 -0.000005 3.000000 -5.000206 7.999191 -0.000104 -17.092079 -167.440680 -0.301377 179.999991 -0.000005 -1.250998 131.868878 8.101810 2.713238 0.000001 0.000001 4.036390 84.757573 5.802277 5.090362 27.274646 -7.287242 2.281974 -16.594906 164.667091 3.617455 -0.000020 -0.000005 -1.480920 -48.796917 -12.071798 -4.835795 -0.000001 -0.000006 -4.899850 84.603320 -5.662343 -5.682386 27.841709 7.242760 -2.876930 
